<svg width="196" height="88" viewBox="0 0 196 88" fill="none" xmlns="http://www.w3.org/2000/svg">
<path d="M155.357 85.9567V87.1792L150.974 87.249L150.886 80.9795L155.287 80.9097V82.1496L152.406 82.1845V83.407L155.113 83.3721V84.612L152.441 84.6469V85.9916L155.357 85.9567ZM161.627 82.429C160.387 82.429 160.334 82.3941 160.212 81.8702C160.107 81.3987 160.212 81.2589 161.015 81.0843C161.539 80.9621 162.22 80.8922 162.901 80.8747L162.814 79.6697C162.185 79.6348 161.33 79.7396 160.719 79.8793C159.094 80.246 158.448 80.8398 158.745 82.1321C159.007 83.2847 159.269 83.7039 161.015 83.6864C162.29 83.6864 162.36 83.7737 162.465 84.2452C162.57 84.7168 162.43 84.9089 161.644 85.0835C161.015 85.2232 160.212 85.2756 159.618 85.2232V86.3758C160.317 86.4981 161.208 86.4282 161.889 86.271C163.845 85.8344 164.176 85.101 163.897 83.8436C163.635 82.6735 163.443 82.3941 161.609 82.3941M170.847 77.6614L170.306 76.4913L165.451 78.6918L165.975 79.8618L167.721 79.076L169.782 83.6165L171.144 83.0053L169.084 78.4647L170.83 77.6789L170.847 77.6614ZM175.44 78.6394L176.401 80.0365L177.641 79.1808L176.68 77.7836L175.44 78.6219V78.6394ZM186.041 69.3486L182.112 66.2052L181.273 67.2355L180.47 69.2264L181.623 69.7328L182.304 68.231L185.115 70.4838L183.998 71.8809L184.958 72.6668L187.997 68.8771L187.019 68.0913L186.024 69.3486H186.041ZM191.507 63.1315C190.721 64.7033 189.97 65.1399 188.957 64.6334L188.556 64.4413C187.997 64.1619 187.857 63.6729 187.875 62.9569C187.263 63.411 186.809 63.376 186.39 63.1665L186.024 62.9744C185.168 62.5552 184.958 61.6471 185.657 60.2326C186.373 58.8005 187.229 58.4163 188.084 58.8529L188.451 59.0276C188.87 59.2371 189.167 59.5689 189.167 60.3373C189.726 59.8833 190.215 59.6912 190.774 59.9706L191.175 60.1627C192.188 60.6691 192.276 61.5947 191.507 63.1141M187.84 60.2849L187.578 60.1452C187.246 59.9881 186.967 60.1452 186.687 60.7041C186.408 61.2629 186.46 61.5598 186.792 61.7344L187.054 61.8741C187.386 62.0313 187.63 61.8567 188.102 61.4201C188.172 60.7914 188.172 60.4596 187.84 60.2849ZM190.407 61.3677L190.197 61.2629C189.831 61.0883 189.569 61.2978 189.01 61.8567C188.905 62.6076 188.888 62.9569 189.254 63.149L189.464 63.2538C189.848 63.4459 190.145 63.2713 190.477 62.5902C190.809 61.9091 190.791 61.5598 190.389 61.3677M194.598 54.8886C194.476 55.3951 194.249 55.9539 194.004 56.3905L192.904 55.9714C193.096 55.6396 193.271 55.1681 193.376 54.6965C193.655 53.5439 193.55 53.1423 192.765 52.9502L192.276 52.8279C192.31 53.1947 192.241 53.7186 192.136 54.1028C191.804 55.4126 191.193 55.919 190.075 55.6396L189.569 55.5173C188.626 55.2729 187.927 54.6267 188.381 52.7755C188.835 50.9768 189.673 50.6624 190.704 50.9244L193.149 51.5356C194.79 51.9373 195.052 52.9676 194.563 54.8886M191.053 52.531L190.337 52.3564C189.9 52.2516 189.691 52.4612 189.534 53.0724C189.377 53.7011 189.464 53.9805 189.9 54.0853L190.337 54.1901C190.686 54.2774 190.861 54.1028 190.966 53.6487C191.053 53.2994 191.088 52.9152 191.053 52.531ZM195.995 45.1613C195.925 47.0823 195 47.6936 193.882 47.6586L191.385 47.5713C190.267 47.5364 189.411 46.8728 189.481 44.9343C189.551 43.0133 190.442 42.402 191.56 42.437L194.092 42.5243C195.209 42.5592 196.065 43.2228 195.995 45.1613ZM194.703 45.1089C194.72 44.3231 194.493 44.0087 193.847 43.9912L191.699 43.9214C191.071 43.9039 190.791 44.1833 190.774 44.9867C190.756 45.79 190.983 46.0869 191.629 46.1044L193.777 46.1742C194.424 46.1917 194.686 45.8948 194.703 45.1089ZM125.651 69.2264L126.926 70.606L122.089 75.0942L119.941 72.789C118.683 71.4268 118.805 70.5362 119.731 69.6805L120.43 69.0168C121.373 68.1436 122.351 68.1611 123.591 69.5058L124.394 70.379L125.634 69.2264H125.651ZM123.311 71.3919L122.508 70.5187C122.193 70.1869 121.931 70.1869 121.652 70.4314L121.076 70.9728C120.814 71.2173 120.796 71.4792 121.111 71.811L121.914 72.6842L123.311 71.3919ZM120.849 66.7989L118.683 68.1611C117.723 68.7723 116.413 68.5977 115.33 66.8339C114.23 65.0875 114.632 63.8476 115.592 63.2363L117.758 61.8741C118.718 61.2629 120.01 61.4376 121.111 63.2014C122.211 64.9478 121.809 66.1877 120.849 66.7989ZM119.749 64.0571C119.364 63.4634 118.963 63.3411 118.561 63.5856L116.78 64.7033C116.378 64.9478 116.308 65.3669 116.692 65.9781C117.077 66.5719 117.478 66.6942 117.88 66.4497L119.661 65.332C120.063 65.0875 120.133 64.6684 119.749 64.0571ZM118.771 59.3594L112.588 61.6995L111.471 58.7481C110.825 57.0192 111.279 56.2334 112.449 55.7793L113.287 55.465C114.003 55.203 114.457 55.2554 115.051 55.6396L116.553 53.5265L117.286 55.4824L116.046 57.1939L116.43 58.2242L118.089 57.5955L118.753 59.3594H118.771ZM115.068 58.7481L114.632 57.613C114.457 57.1764 114.23 57.0716 113.863 57.2113L113.182 57.4733C112.833 57.5955 112.728 57.84 112.903 58.2766L113.339 59.4118L115.068 58.7481ZM111.244 52.077L116.151 51.1863L115.819 49.3352L110.912 50.2258L110.563 48.3397L108.956 48.6366L109.986 54.2599L111.593 53.9631L111.244 52.077ZM115.522 43.5372C115.54 41.2844 114.492 40.6557 113.462 40.6382L108.816 40.6033V42.4894L113.235 42.5243C113.671 42.5243 113.898 42.8212 113.898 43.5197C113.898 44.2357 113.654 44.5152 113.217 44.5152L108.781 44.4802V46.3663L113.409 46.4012C114.44 46.4012 115.505 45.79 115.522 43.5547M110.982 38.2806L113.636 38.8045C114.946 39.0665 115.837 38.3854 116.203 36.4818C116.378 35.5912 116.43 34.6481 116.378 33.7924L113.339 33.1986L113.007 34.8752L114.771 35.2244C114.754 35.5388 114.719 35.8531 114.649 36.2024C114.509 36.8835 114.195 37.0232 113.723 36.9184L111.645 36.5168C111.104 36.412 110.982 36.0802 111.086 35.5039C111.191 34.9625 111.436 34.1068 111.715 33.251L110.213 32.7795C109.899 33.5828 109.672 34.3862 109.515 35.1895C109.165 37.0057 109.637 38.0361 111.017 38.3155M118.264 29.7583C119.102 27.6801 118.369 26.7021 117.408 26.3179L113.095 24.5715L112.379 26.3179L116.483 27.9944C116.902 28.1691 116.989 28.5183 116.727 29.1645C116.465 29.8281 116.133 30.0028 115.732 29.8281L111.628 28.1516L110.929 29.898L115.243 31.6444C116.203 32.0286 117.408 31.8539 118.264 29.7757M122.665 21.5503L121.408 20.7295L119.836 23.157L118.91 22.5632L120.36 20.3278L119.102 19.507L117.653 21.7424L116.815 21.201L118.386 18.7561L117.129 17.9353L114.527 21.952L120.08 25.5495L122.682 21.5328L122.665 21.5503ZM122.875 17.2542C123.818 16.5033 123.94 16.5207 124.254 16.8002C124.534 17.0621 124.551 17.2542 124.062 17.7781C123.591 18.2846 122.909 18.8085 122.403 19.1054L123.224 20.2754C123.922 19.9611 124.656 19.3848 125.18 18.826C126.699 17.1844 126.507 16.3286 125.459 15.3507C124.551 14.5124 124.132 14.3028 122.647 15.438C121.739 16.1365 121.635 16.1365 121.32 15.8396C121.058 15.5952 121.076 15.438 121.495 14.9839C121.897 14.5473 122.42 14.0758 123.032 13.6392L122.089 12.4691C121.53 12.8184 120.779 13.4646 120.36 13.9361C119.172 15.2109 118.945 16.1889 120.01 17.1669C120.901 17.9877 121.512 18.3195 122.892 17.2367M130.995 11.5959L128.69 13.3598L128.026 12.4866L130.139 10.8625L129.231 9.67493L127.118 11.2991L126.507 10.4957L128.812 8.73189L127.904 7.54435L124.114 10.4433L128.131 15.6825L131.921 12.7835L131.013 11.5959H130.995ZM135.92 10.4608L133.405 4.34848L136.584 3.0387C137.946 2.47986 138.54 2.88152 138.889 3.73725L139.116 4.27863C139.273 4.64536 139.238 5.11689 138.854 5.51855C139.5 5.46616 140.006 5.71065 140.251 6.28696L140.478 6.82834C140.845 7.71899 140.67 8.50486 139.238 9.09863L135.955 10.4608H135.92ZM137.981 6.74102L136.636 7.29986L137.125 8.48739L138.417 7.96348C138.749 7.82377 138.784 7.63167 138.697 7.40464L138.505 6.95058C138.4 6.70609 138.225 6.63623 137.963 6.75848M135.641 4.90732L136.13 6.11232L137.247 5.65826C137.457 5.57094 137.596 5.43123 137.492 5.18674L137.247 4.59297C137.177 4.40087 137.02 4.34848 136.776 4.4358L135.641 4.90732ZM142.347 7.98095L141.037 1.51935L144.128 0.890652C145.927 0.523913 146.643 1.10022 146.887 2.34015L147.062 3.21333C147.219 3.96428 147.079 4.41833 146.608 4.92478L148.459 6.75848L146.416 7.17761L144.914 5.67573L143.849 5.88529L144.198 7.61421L142.364 7.98095H142.347ZM143.185 2.61957L143.552 4.4358L144.739 4.19131C145.193 4.10399 145.333 3.87696 145.263 3.51022L145.123 2.7942C145.054 2.42746 144.844 2.28775 144.372 2.39254L143.185 2.63703V2.61957ZM154.344 6.67116V5.16928L151.428 5.22167V4.12145L154.082 4.08652V2.58464L151.393 2.61957V1.60667L154.274 1.57174V0.0698551L149.472 0.13971L149.577 6.74102L154.362 6.67116H154.344ZM158.972 7.28239L160.98 3.21333L161.173 7.73645L163.268 8.17305L166.377 2.09565L164.63 1.72891L162.692 5.62334L162.378 1.23993L160.509 0.838261L158.448 4.71522L158.256 0.366739L156.51 0L156.894 6.82834L158.972 7.26493V7.28239ZM170.149 11.1419L170.778 9.77971L168.141 8.57471L168.612 7.56182L171.04 8.6795L171.668 7.31732L169.241 6.19964L169.66 5.29152L172.297 6.49652L172.926 5.13435L168.577 3.12602L165.818 9.13355L170.166 11.1419H170.149ZM178.217 12.0675C177.781 12.6962 177.361 12.9057 176.663 12.9057L176.593 15.5078L174.882 14.3028L174.951 12.1897L174.061 11.561L173.048 13.0105L171.511 11.9278L175.336 6.53145L177.903 8.34768C179.405 9.41298 179.475 10.3386 178.741 11.3689L178.235 12.1024L178.217 12.0675ZM176.977 9.53522L175.982 8.83667L174.917 10.356L175.912 11.0546C176.296 11.334 176.558 11.2816 176.768 10.9673L177.187 10.3735C177.396 10.0766 177.361 9.83211 176.977 9.55268M180.645 17.0097L185.622 15.3157L184.277 13.9536L181.221 15.1062L182.409 12.0675L181.064 10.7053L179.3 15.665L177.955 16.9923L179.283 18.337L180.627 17.0097H180.645ZM182.391 42.4894H179.213V44.9867H182.391V42.4894ZM122.49 45.0041H125.669V42.5068H122.49V45.0041ZM170.481 63.5507L172.734 65.8035L174.497 64.0397L172.245 61.7868L170.481 63.5681V63.5507ZM132.619 25.6892L134.383 23.9254L132.13 21.69L130.366 23.4538L132.602 25.6892H132.619ZM130.384 64.0222L132.148 65.8035L134.383 63.5507L132.619 61.7868L130.366 64.0397L130.384 64.0222ZM172.262 25.6717L174.515 23.4364L172.751 21.6551L170.498 23.8904L172.262 25.6717ZM151.201 67.8992C138.417 67.2355 128.218 56.6525 128.218 43.7118C128.218 37.2328 130.733 31.1379 135.309 26.5624C139.587 22.2838 145.193 19.8388 151.201 19.5245V13.744H153.698V19.5245C159.706 19.8214 165.311 22.2838 169.59 26.5624C174.166 31.1379 176.698 37.2328 176.68 43.7118C176.68 56.6525 166.464 67.2355 153.681 67.8992V73.6622H151.183V67.8992H151.201ZM168.734 42.4719H174.131C174.078 41.4939 173.956 40.5334 173.781 39.5904L168.734 42.4719ZM153.716 29.4614H163.286L166.831 27.4356C163.163 24.2048 158.588 22.3187 153.716 22.0393V29.4614ZM153.716 34.945L158.92 31.9587H153.716V34.945ZM153.716 55.4475H170.725C172.699 52.3913 173.921 48.8112 174.131 44.9692H164.368L153.716 51.0641V55.4475ZM153.716 65.3844C159.741 65.0351 165.119 62.2409 168.857 57.9623H153.716V65.3844ZM151.218 52.4961L146.084 55.4475H151.218V52.4961ZM136.095 29.4439H151.218V22.0218C145.892 22.3362 140.915 24.5191 137.107 28.3262C136.741 28.693 136.426 29.0597 136.095 29.4439ZM130.803 42.4544H140.583L151.218 36.3596V31.9412H134.191C132.183 35.0673 131.013 38.6648 130.803 42.437M136.217 44.9343H130.803C130.855 45.9123 130.978 46.8728 131.17 47.8333L136.217 44.9343ZM151.218 65.3494V57.9273H141.718L138.155 59.9531C141.683 63.0617 146.224 65.0526 151.218 65.3494Z" fill="#A79966"/>
<path d="M49.2653 21.3232L51.5705 20.4151C58.2941 17.9178 60.3548 14.7219 60.3548 11.1943C60.3548 7.10773 58.5386 3.17838 51.815 3.17838H43.4848V27.9245H49.2653V21.3232ZM49.2653 7.61418H50.6275C52.5485 7.61418 54.6616 8.29527 54.6616 11.1943C54.6616 13.3074 54.1552 14.6695 51.5705 15.9269L49.2653 16.8525V7.61418ZM1.27486 10.2512C1.27486 6.67114 4.15638 2.84657 9.55268 2.63701C13.3249 2.47983 15.3157 3.19585 17.0621 4.06904V8.95889C15.4031 7.98092 13.3423 6.95056 10.8799 7.03788C8.41754 7.14266 7.45703 8.60962 7.45703 9.79715C7.45703 14.2504 18.0226 11.4911 18.0226 20.6596C18.0226 24.8859 14.9665 28.1865 9.74479 28.3961C6.79341 28.5183 3.35304 27.8372 1.55428 26.6846V21.6027C4.54058 23.1744 7.09029 23.7856 8.78428 23.6983C10.8799 23.6285 11.6658 22.5632 11.6658 21.2709C11.6658 16.4509 1.27486 19.2625 1.27486 10.2861M86.3758 20.8343C86.9521 20.6596 87.4935 20.4675 88.0174 20.2929L91.1784 25.7066C92.069 27.1038 92.8724 27.9595 94.3917 27.9595H98.8799L93.0819 18.0226C96.4 16.0492 97.4828 13.8662 97.4828 11.2292C97.4828 7.14266 95.6666 3.21331 88.943 3.21331H80.6128V27.9245H86.3933V20.7993L86.3758 20.8343ZM86.3758 7.66657H87.738C89.6416 7.66657 91.7721 8.34766 91.7721 11.2292C91.7721 13.8837 91.0037 15.2459 86.3758 16.7827V7.63165V7.66657ZM39.6777 67.6197C39.6777 63.5332 37.8615 59.6038 31.1379 59.6038H22.8077V84.35H28.5882V77.2248C29.1645 77.0327 29.7059 76.858 30.2298 76.6834L33.3907 82.0972C34.2989 83.4943 35.1022 84.35 36.6041 84.35H41.0923L35.2943 74.4131C38.6124 72.4397 39.6952 70.2567 39.6952 67.6197M28.6057 73.1732V64.0571H29.9678C31.8714 64.0571 34.002 64.7382 34.002 67.6197C34.002 70.2567 33.2336 71.6189 28.6057 73.1732ZM21.0788 18.2845V3.16092H26.8418V18.2845C26.8418 21.5328 27.7499 23.1569 30.2647 23.1569C32.7795 23.1569 33.7051 21.5328 33.7051 18.2845V3.16092H39.4856V18.2845C39.4856 25.6193 35.8881 28.3961 30.2822 28.3961C24.6763 28.3961 21.0962 25.6019 21.0962 18.2845M98.5481 59.6038H90.2179V84.3675H95.9984V77.7662L98.3211 76.858C105.045 74.3607 107.105 71.1823 107.105 67.6372C107.105 63.5507 105.289 59.6213 98.5655 59.6213M98.3211 72.3699L95.9984 73.2954V64.0571H97.3605C99.2816 64.0571 101.395 64.7382 101.395 67.6372C101.395 69.7503 100.888 71.1125 98.3036 72.3699M80.4207 59.6213H86.2012V74.7275C86.2012 82.0622 82.6037 84.839 76.9978 84.839C71.3919 84.839 67.8118 82.0448 67.8118 74.7275V59.6213H73.5749V74.7275C73.5749 77.9757 74.483 79.6173 76.9978 79.6173C79.5126 79.6173 80.4207 77.9932 80.4207 74.7275V59.6213ZM77.2423 27.942H63.1665V3.16092H77.2423V7.64911H68.947V12.993H74.9196V17.1145H68.947V23.4364H77.2423V27.9071V27.942ZM52.1294 43.7991C52.1294 48.7588 55.1506 51.553 59.045 51.553C60.7215 51.553 62.7124 51.1514 64.7207 49.7717V55.1855C62.8521 56.3206 61.0184 56.635 59.045 56.635C51.2562 56.635 46.1044 50.9942 46.1044 43.7991C46.1044 36.604 51.2562 30.9458 59.045 30.9458C61.0184 30.9458 62.8521 31.2427 64.7207 32.3778V37.809C62.7124 36.4469 60.7215 36.0277 59.045 36.0277C55.1506 36.0277 52.1294 38.8219 52.1294 43.7991ZM15.7349 43.0482C17.8131 41.7035 18.1798 39.2585 18.1798 38.1758C18.1798 33.4431 14.1631 31.3998 10.0591 31.3998H1.27486V56.146H11.4038C16.9573 56.146 19.6817 52.793 19.6817 48.9684C19.6817 46.1567 18.3894 44.0087 15.7174 43.0307M7.0379 35.3641H9.41297C11.8404 35.3641 12.539 36.6914 12.539 38.4203C12.539 39.8698 12.1723 41.686 9.86703 41.686H7.0379V35.3816V35.3641ZM10.2862 51.9372H7.0379V45.3185H10.1115C12.1199 45.3185 13.7265 45.7725 13.7265 48.4445C13.7265 51.1164 12.2421 51.9372 10.2862 51.9372ZM79.1458 42.8386L88.1921 56.1111H83.18C81.6781 56.1111 80.997 55.3601 79.9666 53.8583L73.54 44.4278V56.1111H67.7594V31.3649H73.54V42.3496L80.5953 31.3649H86.795L79.1284 42.8386H79.1458ZM32.4826 56.6001C39.4856 56.6001 44.0087 50.8545 44.0087 43.7817C44.0087 36.7088 39.5031 30.9458 32.4826 30.9458C25.4622 30.9458 20.9565 36.6914 20.9565 43.7817C20.9565 50.8719 25.4622 56.6001 32.4826 56.6001ZM32.4826 35.9404C36.0452 35.9404 38.3155 39.4506 38.3155 43.7991C38.3155 48.1476 36.0452 51.6578 32.4826 51.6578C28.92 51.6578 26.6497 48.1476 26.6497 43.7991C26.6497 39.4506 28.92 35.9404 32.4826 35.9404ZM53.2121 59.1498C46.1917 59.1498 41.686 64.8954 41.686 71.9856C41.686 79.0759 46.1917 84.8041 53.2121 84.8041C60.2326 84.8041 64.7382 79.0585 64.7382 71.9856C64.7382 64.9128 60.2326 59.1498 53.2121 59.1498ZM53.2121 79.8618C49.6495 79.8618 47.3792 76.3341 47.3792 72.0031C47.3792 67.6721 49.6495 64.1444 53.2121 64.1444C56.7747 64.1444 59.045 67.6546 59.045 72.0031C59.045 76.3516 56.7747 79.8618 53.2121 79.8618ZM19.0355 71.9682V83.2149C18.3195 83.6515 17.5511 84.0007 16.7303 84.2627C16.6081 84.3151 16.4858 84.35 16.3636 84.3849C16.3286 84.3849 16.2937 84.3849 16.2588 84.4024C15.8047 84.5246 15.3332 84.6294 14.8617 84.6818C14.8093 84.6818 14.7394 84.6818 14.687 84.6993C14.5124 84.7167 14.3552 84.7342 14.1806 84.7517C14.0583 84.7517 13.9361 84.7517 13.8138 84.7691C13.6392 84.7691 13.4646 84.7691 13.2899 84.7691C13.2375 84.7691 13.2026 84.7691 13.1502 84.7691H13.1328C13.1328 84.7691 12.993 84.7691 12.9407 84.7691C5.15181 84.7691 0 79.1283 0 71.9333C0 64.7382 5.15181 59.0799 12.9407 59.0799C14.9315 59.0799 16.7478 59.3768 18.6338 60.5294V65.9432C16.608 64.581 14.6346 64.1619 12.9407 64.1619C9.04624 64.1619 6.025 66.9561 6.025 71.9333C6.025 76.893 9.0637 79.7046 12.9407 79.7046C13.0454 79.7046 13.1677 79.7046 13.6217 79.6697V71.9333H19.0181L19.0355 71.9682Z" fill="#AB2328"/>
</svg>
